<svg xmlns="http://www.w3.org/2000/svg" fill="currentColor" viewBox="0 0 64 64">
  <path fill-rule="evenodd" d="M32 64C14.326 64 0 49.674 0 32S14.326 0 32 0s32 14.326 32 32-14.326 32-32 32m14.378-35.96c.628-4.192-2.566-6.446-6.93-7.95l1.416-5.68-3.456-.86-1.38 5.53c-.908-.228-1.84-.44-2.77-.652l1.39-5.566L31.192 12l-1.416 5.678q-1.13-.254-2.208-.52l.004-.018-4.768-1.19-.92 3.692s2.566.588 2.512.624c1.4.35 1.652 1.276 1.61 2.012l-1.612 6.47q.146.034.36.114l-.366-.09-2.26 9.064c-.172.424-.606 1.062-1.586.82.036.05-2.512-.626-2.512-.626l-1.716 3.956 4.5 1.122c.836.21 1.656.43 2.462.636l-1.43 5.744 3.454.86 1.416-5.68q1.414.38 2.756.714l-1.412 5.656 3.456.86 1.43-5.732c5.896 1.116 10.328.666 12.194-4.666 1.504-4.292-.074-6.77-3.176-8.384 2.26-.52 3.96-2.006 4.414-5.076m-7.9 11.076c-1.066 4.294-8.296 1.972-10.64 1.39l1.9-7.61c2.344.586 9.858 1.744 8.74 6.22m1.07-11.138c-.974 3.906-6.99 1.92-8.94 1.434l1.72-6.9c1.95.486 8.236 1.392 7.22 5.466"/>
</svg>
