<svg xmlns="http://www.w3.org/2000/svg" viewBox="40 5.912 400 400" width="533.333" height="533.333"><clipPath id="A"><path d="M40 5.912h400v400H40z"/></clipPath><g clip-path="url(#A)"><path d="M100.019 5.912h279.962C413.106 5.912 440 32.806 440 65.931v279.962c0 33.126-26.894 60.019-60.019 60.019H100.019C66.894 405.912 40 379.019 40 345.893V65.931c0-33.125 26.894-60.019 60.019-60.019z" opacity=".87"/><g stroke="#fff" stroke-miterlimit="3" stroke-width="70"><path d="M105.811 190.469c18.877-51.863 76.308-78.643 128.171-59.767s78.644 76.308 59.768 128.171-76.309 78.644-128.172 59.768-78.644-76.309-59.767-128.172z" fill="none"/><path d="m378.391 55.561-109.446 300.702" stroke-linecap="square"/></g></g></svg>