<svg xmlns="http://www.w3.org/2000/svg" fill="currentColor" viewBox="0 0 64 64">
  <path fill-rule="evenodd" d="M16.21 8.89h32.24c.77 0 1.48.41 1.87 1.08L59.7 26.3c.49.85.34 1.92-.35 2.6L33.5 54.5c-.84.83-2.18.83-3.02 0L4.66 28.95c-.71-.7-.85-1.8-.32-2.65L14.38 9.9a2.2 2.2 0 0 1 1.82-1m28.08 7.3v4.58H35.1v3.18c6.46.34 11.3 1.74 11.33 3.41v3.49c-.04 1.67-4.87 3.07-11.33 3.4v7.81H29v-7.8c-6.44-.34-11.28-1.74-11.32-3.41v-3.49c.04-1.67 4.88-3.07 11.33-3.4v-3.19h-9.19V16.2zM32.06 31.86c6.88 0 12.63-1.18 14.04-2.76-1.2-1.33-5.51-2.38-11-2.67v3.33a58 58 0 0 1-6.1 0v-3.33c-5.48.29-9.8 1.34-10.99 2.67 1.4 1.58 7.16 2.76 14.05 2.76"/>
</svg>
